<svg width="40" height="40" viewBox="0 0 40 40" fill="none" xmlns="http://www.w3.org/2000/svg">
<g clip-path="url(#clip0)">
<g filter="url(#filter0_d)">
<rect x="4" y="3" width="32" height="33" rx="5" fill="white"/>
</g>
<mask id="mask0" mask-type="alpha" maskUnits="userSpaceOnUse" x="4" y="3" width="32" height="33">
<rect x="4" y="3" width="32" height="33" rx="5" fill="white"/>
</mask>
<g mask="url(#mask0)">
<rect x="8" y="9" width="17" height="3" rx="1.5" fill="#6970FA"/>
<rect x="8" y="21" width="14" height="3" rx="1.5" fill="#E0E04A"/>
<rect x="8" y="15" width="8" height="3" rx="1.5" fill="#E0E04A"/>
<rect x="8" y="27" width="8" height="3" rx="1.5" fill="#6970FA"/>
<rect x="27" y="9" width="5" height="3" rx="1.5" fill="#C4D0DC"/>
<rect x="24" y="21" width="8" height="3" rx="1.5" fill="#C4D0DC"/>
<rect x="19" y="15" width="13" height="3" rx="1.5" fill="#9FE259"/>
<rect x="19" y="27" width="13" height="3" rx="1.5" fill="#9FE259"/>
<rect x="10" y="23" width="26" height="13" rx="5" fill="#73C924"/>
<path d="M16.3479 33.12C15.3079 33.12 14.5779 32.84 14.1579 32.28C13.7379 31.72 13.5279 30.84 13.5279 29.64C13.5279 28.4333 13.7379 27.54 14.1579 26.96C14.5846 26.3733 15.3146 26.08 16.3479 26.08C17.3812 26.08 18.1079 26.3733 18.5279 26.96C18.9546 27.54 19.1679 28.4333 19.1679 29.64C19.1679 31.12 18.8179 32.1167 18.1179 32.63L18.9479 33.97L17.6879 34.56L16.7879 33.09C16.7212 33.11 16.5746 33.12 16.3479 33.12ZM15.2379 31.4C15.4379 31.7467 15.8079 31.92 16.3479 31.92C16.8879 31.92 17.2546 31.7467 17.4479 31.4C17.6479 31.0533 17.7479 30.4667 17.7479 29.64C17.7479 28.8133 17.6479 28.2133 17.4479 27.84C17.2479 27.4667 16.8812 27.28 16.3479 27.28C15.8146 27.28 15.4479 27.4667 15.2479 27.84C15.0479 28.2133 14.9479 28.8133 14.9479 29.64C14.9479 30.4667 15.0446 31.0533 15.2379 31.4ZM20.3513 33V26.2H22.7013L23.9013 31.16L25.1013 26.2H27.4513V33H26.0713V27.74H25.9213L24.5913 32.7H23.2113L21.8813 27.74H21.7313V33H20.3513ZM32.8053 33H28.9353V26.2H30.3153V31.78H32.8053V33Z" fill="white"/>
</g>
</g>
<defs>
<filter id="filter0_d" x="1" y="2" width="38" height="39" filterUnits="userSpaceOnUse" color-interpolation-filters="sRGB">
<feFlood flood-opacity="0" result="BackgroundImageFix"/>
<feColorMatrix in="SourceAlpha" type="matrix" values="0 0 0 0 0 0 0 0 0 0 0 0 0 0 0 0 0 0 127 0"/>
<feOffset dy="2"/>
<feGaussianBlur stdDeviation="1.5"/>
<feColorMatrix type="matrix" values="0 0 0 0 0 0 0 0 0 0 0 0 0 0 0 0 0 0 0.1 0"/>
<feBlend mode="normal" in2="BackgroundImageFix" result="effect1_dropShadow"/>
<feBlend mode="normal" in="SourceGraphic" in2="effect1_dropShadow" result="shape"/>
</filter>
<clipPath id="clip0">
<rect width="40" height="40" fill="white"/>
</clipPath>
</defs>
</svg>
