<svg width="40" height="40" viewBox="0 0 40 40" fill="none" xmlns="http://www.w3.org/2000/svg">
<g clip-path="url(#clip0)">
<g filter="url(#filter0_d)">
<rect x="4" y="3" width="32" height="33" rx="5" fill="white"/>
</g>
<mask id="mask0" mask-type="alpha" maskUnits="userSpaceOnUse" x="4" y="3" width="32" height="33">
<rect x="4" y="3" width="32" height="33" rx="5" fill="white"/>
</mask>
<g mask="url(#mask0)">
<rect x="8" y="9" width="17" height="3" rx="1.5" fill="#5960E2"/>
<rect x="8" y="21" width="14" height="3" rx="1.5" fill="#DF70F2"/>
<rect x="8" y="15" width="8" height="3" rx="1.5" fill="#DF70F2"/>
<rect x="8" y="27" width="8" height="3" rx="1.5" fill="#5960E2"/>
<rect x="27" y="9" width="5" height="3" rx="1.5" fill="#C4D0DC"/>
<rect x="24" y="21" width="8" height="3" rx="1.5" fill="#C4D0DC"/>
<rect x="19" y="15" width="13" height="3" rx="1.5" fill="#9FE259"/>
<rect x="19" y="27" width="13" height="3" rx="1.5" fill="#9FE259"/>
<rect x="13" y="23" width="23" height="13" rx="4" fill="#41CD52"/>
<path d="M15 3H31C33.7614 3 36 5.23858 36 8V14H20C17.2386 14 15 11.7614 15 9V3Z" fill="#E9645C"/>
<path d="M19.26 33.12C18.22 33.12 17.49 32.84 17.07 32.28C16.65 31.72 16.44 30.84 16.44 29.64C16.44 28.4333 16.65 27.54 17.07 26.96C17.4967 26.3733 18.2267 26.08 19.26 26.08C20.2933 26.08 21.02 26.3733 21.44 26.96C21.8667 27.54 22.08 28.4333 22.08 29.64C22.08 31.12 21.73 32.1167 21.03 32.63L21.86 33.97L20.6 34.56L19.7 33.09C19.6333 33.11 19.4867 33.12 19.26 33.12ZM18.15 31.4C18.35 31.7467 18.72 31.92 19.26 31.92C19.8 31.92 20.1667 31.7467 20.36 31.4C20.56 31.0533 20.66 30.4667 20.66 29.64C20.66 28.8133 20.56 28.2133 20.36 27.84C20.16 27.4667 19.7933 27.28 19.26 27.28C18.7267 27.28 18.36 27.4667 18.16 27.84C17.96 28.2133 17.86 28.8133 17.86 29.64C17.86 30.4667 17.9567 31.0533 18.15 31.4ZM25.3534 27.28C24.6268 27.28 24.2634 27.52 24.2634 28C24.2634 28.2133 24.3534 28.3767 24.5334 28.49C24.7134 28.6033 25.1334 28.7667 25.7934 28.98C26.4601 29.1933 26.9268 29.4367 27.1934 29.71C27.4601 29.9767 27.5934 30.39 27.5934 30.95C27.5934 31.6633 27.3768 32.2033 26.9434 32.57C26.5101 32.9367 25.9434 33.12 25.2434 33.12C24.7234 33.12 24.0868 33.04 23.3334 32.88L22.9734 32.81L23.1134 31.74C24.0068 31.86 24.6901 31.92 25.1634 31.92C25.8701 31.92 26.2234 31.6267 26.2234 31.04C26.2234 30.8267 26.1401 30.66 25.9734 30.54C25.8134 30.42 25.4901 30.29 25.0034 30.15C24.2301 29.93 23.6834 29.67 23.3634 29.37C23.0501 29.0633 22.8934 28.64 22.8934 28.1C22.8934 27.42 23.1001 26.9133 23.5134 26.58C23.9268 26.2467 24.4934 26.08 25.2134 26.08C25.7068 26.08 26.3334 26.1467 27.0934 26.28L27.4534 26.35L27.3434 27.44C26.4034 27.3333 25.7401 27.28 25.3534 27.28ZM30.7929 27.28C30.0662 27.28 29.7029 27.52 29.7029 28C29.7029 28.2133 29.7929 28.3767 29.9729 28.49C30.1529 28.6033 30.5729 28.7667 31.2329 28.98C31.8996 29.1933 32.3662 29.4367 32.6329 29.71C32.8996 29.9767 33.0329 30.39 33.0329 30.95C33.0329 31.6633 32.8162 32.2033 32.3829 32.57C31.9496 32.9367 31.3829 33.12 30.6829 33.12C30.1629 33.12 29.5262 33.04 28.7729 32.88L28.4129 32.81L28.5529 31.74C29.4462 31.86 30.1296 31.92 30.6029 31.92C31.3096 31.92 31.6629 31.6267 31.6629 31.04C31.6629 30.8267 31.5796 30.66 31.4129 30.54C31.2529 30.42 30.9296 30.29 30.4429 30.15C29.6696 29.93 29.1229 29.67 28.8029 29.37C28.4896 29.0633 28.3329 28.64 28.3329 28.1C28.3329 27.42 28.5396 26.9133 28.9529 26.58C29.3662 26.2467 29.9329 26.08 30.6529 26.08C31.1462 26.08 31.7729 26.1467 32.5329 26.28L32.8929 26.35L32.7829 27.44C31.8429 27.3333 31.1796 27.28 30.7929 27.28Z" fill="white"/>
<path d="M19.6797 8.99609V11H18.5078V5.3125H20.7266C21.1536 5.3125 21.5286 5.39062 21.8516 5.54688C22.1771 5.70312 22.4271 5.92578 22.6016 6.21484C22.776 6.5013 22.8633 6.82812 22.8633 7.19531C22.8633 7.7526 22.6719 8.19271 22.2891 8.51562C21.9089 8.83594 21.3815 8.99609 20.707 8.99609H19.6797ZM19.6797 8.04688H20.7266C21.0365 8.04688 21.2721 7.97396 21.4336 7.82812C21.5977 7.68229 21.6797 7.47396 21.6797 7.20312C21.6797 6.92448 21.5977 6.69922 21.4336 6.52734C21.2695 6.35547 21.043 6.26693 20.7539 6.26172H19.6797V8.04688ZM25.7773 8.91797H24.8438V11H23.6719V5.3125H25.7852C26.457 5.3125 26.9753 5.46224 27.3398 5.76172C27.7044 6.0612 27.8867 6.48438 27.8867 7.03125C27.8867 7.41927 27.8021 7.74349 27.6328 8.00391C27.4661 8.26172 27.2122 8.46745 26.8711 8.62109L28.1016 10.9453V11H26.8438L25.7773 8.91797ZM24.8438 7.96875H25.7891C26.0833 7.96875 26.3112 7.89453 26.4727 7.74609C26.6341 7.59505 26.7148 7.38802 26.7148 7.125C26.7148 6.85677 26.638 6.64583 26.4844 6.49219C26.3333 6.33854 26.1003 6.26172 25.7852 6.26172H24.8438V7.96875ZM33.4531 8.28516C33.4531 8.84505 33.3542 9.33594 33.1562 9.75781C32.9583 10.1797 32.6745 10.5052 32.3047 10.7344C31.9375 10.9635 31.5156 11.0781 31.0391 11.0781C30.5677 11.0781 30.1471 10.9648 29.7773 10.7383C29.4076 10.5117 29.1211 10.1888 28.918 9.76953C28.7148 9.34766 28.612 8.86328 28.6094 8.31641V8.03516C28.6094 7.47526 28.7096 6.98307 28.9102 6.55859C29.1133 6.13151 29.3984 5.80469 29.7656 5.57812C30.1354 5.34896 30.5573 5.23438 31.0312 5.23438C31.5052 5.23438 31.9258 5.34896 32.293 5.57812C32.6628 5.80469 32.9479 6.13151 33.1484 6.55859C33.3516 6.98307 33.4531 7.47396 33.4531 8.03125V8.28516ZM32.2656 8.02734C32.2656 7.43099 32.1589 6.97786 31.9453 6.66797C31.7318 6.35807 31.4271 6.20312 31.0312 6.20312C30.638 6.20312 30.3346 6.35677 30.1211 6.66406C29.9076 6.96875 29.7995 7.41667 29.7969 8.00781V8.28516C29.7969 8.86589 29.9036 9.31641 30.1172 9.63672C30.3307 9.95703 30.638 10.1172 31.0391 10.1172C31.4323 10.1172 31.7344 9.96354 31.9453 9.65625C32.1562 9.34635 32.263 8.89583 32.2656 8.30469V8.02734Z" fill="white"/>
</g>
</g>
<defs>
<filter id="filter0_d" x="1" y="2" width="38" height="39" filterUnits="userSpaceOnUse" color-interpolation-filters="sRGB">
<feFlood flood-opacity="0" result="BackgroundImageFix"/>
<feColorMatrix in="SourceAlpha" type="matrix" values="0 0 0 0 0 0 0 0 0 0 0 0 0 0 0 0 0 0 127 0"/>
<feOffset dy="2"/>
<feGaussianBlur stdDeviation="1.5"/>
<feColorMatrix type="matrix" values="0 0 0 0 0 0 0 0 0 0 0 0 0 0 0 0 0 0 0.1 0"/>
<feBlend mode="normal" in2="BackgroundImageFix" result="effect1_dropShadow"/>
<feBlend mode="normal" in="SourceGraphic" in2="effect1_dropShadow" result="shape"/>
</filter>
<clipPath id="clip0">
<rect width="40" height="40" fill="white"/>
</clipPath>
</defs>
</svg>
