<svg width="80" height="80" viewBox="0 0 40 40" fill="none" xmlns="http://www.w3.org/2000/svg">
<g clip-path="url(#clip0)">
<rect width="40" height="40" fill="white"/>
<g filter="url(#filter0_d)">
<rect x="4" y="3" width="32" height="33" rx="5" fill="white"/>
</g>
<mask id="mask0" mask-type="alpha" maskUnits="userSpaceOnUse" x="4" y="3" width="32" height="33">
<rect x="4" y="3" width="32" height="33" rx="5" fill="white"/>
</mask>
<g mask="url(#mask0)">
<rect x="8" y="9" width="17" height="3" rx="1.5" fill="#5960E2"/>
<rect x="8" y="21" width="14" height="3" rx="1.5" fill="#DF70F2"/>
<rect x="8" y="15" width="8" height="3" rx="1.5" fill="#DF70F2"/>
<rect x="8" y="27" width="8" height="3" rx="1.5" fill="#5960E2"/>
<rect x="27" y="9" width="5" height="3" rx="1.5" fill="#C4D0DC"/>
<rect x="24" y="21" width="8" height="3" rx="1.5" fill="#C4D0DC"/>
<rect x="19" y="15" width="13" height="3" rx="1.5" fill="#9FE259"/>
<rect x="19" y="27" width="13" height="3" rx="1.5" fill="#9FE259"/>
<rect x="13" y="23" width="23" height="13" rx="5" fill="#41CD52"/>
<path d="M19.26 33.12C18.22 33.12 17.49 32.84 17.07 32.28C16.65 31.72 16.44 30.84 16.44 29.64C16.44 28.4333 16.65 27.54 17.07 26.96C17.4967 26.3733 18.2267 26.08 19.26 26.08C20.2933 26.08 21.02 26.3733 21.44 26.96C21.8667 27.54 22.08 28.4333 22.08 29.64C22.08 31.12 21.73 32.1167 21.03 32.63L21.86 33.97L20.6 34.56L19.7 33.09C19.6333 33.11 19.4867 33.12 19.26 33.12ZM18.15 31.4C18.35 31.7467 18.72 31.92 19.26 31.92C19.8 31.92 20.1667 31.7467 20.36 31.4C20.56 31.0533 20.66 30.4667 20.66 29.64C20.66 28.8133 20.56 28.2133 20.36 27.84C20.16 27.4667 19.7933 27.28 19.26 27.28C18.7267 27.28 18.36 27.4667 18.16 27.84C17.96 28.2133 17.86 28.8133 17.86 29.64C17.86 30.4667 17.9567 31.0533 18.15 31.4ZM25.3534 27.28C24.6268 27.28 24.2634 27.52 24.2634 28C24.2634 28.2133 24.3534 28.3767 24.5334 28.49C24.7134 28.6033 25.1334 28.7667 25.7934 28.98C26.4601 29.1933 26.9268 29.4367 27.1934 29.71C27.4601 29.9767 27.5934 30.39 27.5934 30.95C27.5934 31.6633 27.3768 32.2033 26.9434 32.57C26.5101 32.9367 25.9434 33.12 25.2434 33.12C24.7234 33.12 24.0868 33.04 23.3334 32.88L22.9734 32.81L23.1134 31.74C24.0068 31.86 24.6901 31.92 25.1634 31.92C25.8701 31.92 26.2234 31.6267 26.2234 31.04C26.2234 30.8267 26.1401 30.66 25.9734 30.54C25.8134 30.42 25.4901 30.29 25.0034 30.15C24.2301 29.93 23.6834 29.67 23.3634 29.37C23.0501 29.0633 22.8934 28.64 22.8934 28.1C22.8934 27.42 23.1001 26.9133 23.5134 26.58C23.9268 26.2467 24.4934 26.08 25.2134 26.08C25.7068 26.08 26.3334 26.1467 27.0934 26.28L27.4534 26.35L27.3434 27.44C26.4034 27.3333 25.7401 27.28 25.3534 27.28ZM30.7929 27.28C30.0662 27.28 29.7029 27.52 29.7029 28C29.7029 28.2133 29.7929 28.3767 29.9729 28.49C30.1529 28.6033 30.5729 28.7667 31.2329 28.98C31.8996 29.1933 32.3662 29.4367 32.6329 29.71C32.8996 29.9767 33.0329 30.39 33.0329 30.95C33.0329 31.6633 32.8162 32.2033 32.3829 32.57C31.9496 32.9367 31.3829 33.12 30.6829 33.12C30.1629 33.12 29.5262 33.04 28.7729 32.88L28.4129 32.81L28.5529 31.74C29.4462 31.86 30.1296 31.92 30.6029 31.92C31.3096 31.92 31.6629 31.6267 31.6629 31.04C31.6629 30.8267 31.5796 30.66 31.4129 30.54C31.2529 30.42 30.9296 30.29 30.4429 30.15C29.6696 29.93 29.1229 29.67 28.8029 29.37C28.4896 29.0633 28.3329 28.64 28.3329 28.1C28.3329 27.42 28.5396 26.9133 28.9529 26.58C29.3662 26.2467 29.9329 26.08 30.6529 26.08C31.1462 26.08 31.7729 26.1467 32.5329 26.28L32.8929 26.35L32.7829 27.44C31.8429 27.3333 31.1796 27.28 30.7929 27.28Z" fill="white"/>
</g>
</g>
<defs>
<filter id="filter0_d" x="1" y="2" width="38" height="39" filterUnits="userSpaceOnUse" color-interpolation-filters="sRGB">
<feFlood flood-opacity="0" result="BackgroundImageFix"/>
<feColorMatrix in="SourceAlpha" type="matrix" values="0 0 0 0 0 0 0 0 0 0 0 0 0 0 0 0 0 0 127 0"/>
<feOffset dy="2"/>
<feGaussianBlur stdDeviation="1.5"/>
<feColorMatrix type="matrix" values="0 0 0 0 0 0 0 0 0 0 0 0 0 0 0 0 0 0 0.1 0"/>
<feBlend mode="normal" in2="BackgroundImageFix" result="effect1_dropShadow"/>
<feBlend mode="normal" in="SourceGraphic" in2="effect1_dropShadow" result="shape"/>
</filter>
<clipPath id="clip0">
<rect width="40" height="40" fill="white"/>
</clipPath>
</defs>
</svg>
